<?xml version="1.0" encoding="UTF-8"?><svg id="Layer_1" xmlns="http://www.w3.org/2000/svg" viewBox="0 0 400.1 500"><defs><style>.cls-1{fill:#c00;stroke-width:0px;}</style></defs><path class="cls-1" d="M247.7,423.3c-.7,18.1-2.1,35.5-4,51.5-.9,7.8-7.5,13.7-15.3,13.7h-56.6c-7.9,0-14.5-5.9-15.4-13.7-2-16-3.3-33.4-4-51.5,1.4-1,39.2-30.8,47.6-37.9,8.4,7.1,46.3,37,47.7,37.9Z"/><path class="cls-1" d="M387.8,269.2c4.7,6.1,4.1,14.8-1.4,20.2l-99.2,99.3c-5.4,5.5-14.1,6.1-20.2,1.4-6.1-4.8-50.6-40.7-67-55.1-16.3,14.3-60.7,50.4-66.8,55.2-6.2,4.6-14.8,4-20.2-1.4L13.8,289.5c-5.5-5.4-6.2-14.1-1.5-20.2,16.6-21.6,35-43.9,55.1-66.8-20.1-22.8-38.5-45.2-55.1-66.9-4.7-6.2-4-14.8,1.5-20.2L113,15.9c5.4-5.5,14.1-6.1,20.2-1.3,21.7,16.5,44,35,66.8,55.2,22.8-20.1,45.2-38.6,66.9-55.2,6.1-4.7,14.8-4.1,20.2,1.3l99.2,99.3c5.5,5.4,6.1,14.1,1.4,20.2-16.5,21.7-35,44.1-55.2,66.9,20.3,22.9,38.8,45.2,55.3,66.9Z"/></svg>