<svg version="1.1" id="Layer_1" xmlns="http://www.w3.org/2000/svg" xmlns:xlink="http://www.w3.org/1999/xlink" x="0px" y="0px"
	 viewBox="0 0 400.1 500" style="enable-background:new 0 0 400.1 500;" xml:space="preserve">
<style type="text/css">
	.st0{fill:#DC143C;}
</style>
<title>Asset 6</title>
<g id="f1482012-3220-4c1e-ab5a-bc8576e0d6ec">
	<g id="a5b28c5c-82c0-4135-959a-1ad948351f1d">
		<path class="st0" d="M247.7,423.3c-0.7,18.1-2.1,35.5-4,51.5c-0.9,7.8-7.5,13.7-15.3,13.7h-56.6c-7.9,0-14.5-5.9-15.4-13.7
			c-2-16-3.3-33.4-4-51.5c1.4-1,39.2-30.8,47.6-37.9C208.4,392.5,246.3,422.4,247.7,423.3z"/>
		<path class="st0" d="M387.8,269.2c4.7,6.1,4.1,14.8-1.4,20.2l-99.2,99.3c-5.4,5.5-14.1,6.1-20.2,1.4c-6.1-4.8-12.4-9.6-18.7-14.7
			C232.5,363,216.4,349.4,200,335c-16.3,14.3-32.3,28-48.2,40.5c-6.2,5.1-12.5,9.9-18.6,14.7c-6.2,4.6-14.8,4-20.2-1.4l-99.2-99.3
			c-5.5-5.4-6.2-14.1-1.5-20.2c16.6-21.6,35-43.9,55.1-66.8c-20.1-22.8-38.5-45.2-55.1-66.9c-4.7-6.2-4-14.8,1.5-20.2L113,15.9
			c5.4-5.5,14.1-6.1,20.2-1.3c21.7,16.5,44,35,66.8,55.2c22.8-20.1,45.2-38.6,66.9-55.2c6.1-4.7,14.8-4.1,20.2,1.3l99.2,99.3
			c5.5,5.4,6.1,14.1,1.4,20.2c-16.5,21.7-35,44.1-55.2,66.9C352.8,225.2,371.3,247.5,387.8,269.2z"/>
		<path class="st0" d="M387.8,269.2c4.7,6.1,4.1,14.8-1.4,20.2l-99.2,99.3c-5.4,5.5-14.1,6.1-20.2,1.4c-6.1-4.8-50.6-40.8-66.9-55.1
			c-16.3,14.3-60.7,50.4-66.8,55.1c-6.2,4.6-14.8,4-20.2-1.4l-99.2-99.3c-5.5-5.4-6.2-14.1-1.5-20.2c16.6-21.6,35-43.9,55.1-66.8
			c-20.1-22.8-38.5-45.2-55.1-66.9c-4.7-6.2-4-14.8,1.5-20.2L113,15.9c5.4-5.5,14.1-6.1,20.2-1.3c21.7,16.5,44,35,66.8,55.2
			c22.8-20.1,45.2-38.6,66.9-55.2c6.1-4.7,14.8-4.1,20.2,1.3l99.2,99.3c5.5,5.4,6.1,14.1,1.4,20.2c-16.5,21.7-35,44.1-55.2,66.9
			C352.8,225.2,371.3,247.5,387.8,269.2z"/>
	</g>
</g>
</svg>
