<?xml version="1.0" encoding="utf-8"?>
<!-- Generator: Adobe Illustrator 23.0.6, SVG Export Plug-In . SVG Version: 6.00 Build 0)  -->
<svg version="1.1" id="Layer_1" xmlns="http://www.w3.org/2000/svg" xmlns:xlink="http://www.w3.org/1999/xlink" x="0px" y="0px"
	 viewBox="0 0 60 60" style="enable-background:new 0 0 60 60;" xml:space="preserve">
<style type="text/css">
	.st0{fill:#DC143C;}
	.st1{fill:#EFB22F;}
</style>
<g>
	<g>
		<path d="M1411.82-692.11c-42.41,0-76.8,34.38-76.8,76.8c0,3.09,0.2,6.13,0.56,9.13l75.88,157.38l76.83-159.35
			c0.22-2.36,0.33-4.75,0.33-7.16C1488.62-657.73,1454.23-692.11,1411.82-692.11z"/>
		<path d="M1328.3-596.22c-9.59-4.31-20.22-7.05-31.42-7.05c-42.41,0-76.8,34.22-76.8,76.63s34.38,77.38,76.8,77.38
			c1.51,0,3.01,0.44,4.5,0.44h97.66L1328.3-596.22z"/>
		<path d="M1527.13-603.74c-11.57,0-22.52,3.25-32.36,7.83l-70.53,146.97h98.39c1.49,0,2.99,0.14,4.5,0.14
			c1.51,0,3.01-0.14,4.5-0.14h2.66l-0.09-0.87c39.1-3.57,69.72-36.77,69.72-76.8C1603.92-569.03,1569.54-603.74,1527.13-603.74z"/>
	</g>
	<g>
		<path d="M1298.62-389.78c-2.3-9.83,5.04-19.36,16.47-21.69l-0.01-0.04l181.24-30.16l0.02,0.1c0.72-0.19,1.47-0.35,2.22-0.47
			c11.97-1.99,23.58,4.58,25.95,14.67c2.36,10.1-5.43,19.89-17.39,21.89c-0.76,0.13-1.52,0.22-2.27,0.28l0.02,0.1l-181.24,30.16
			l-0.01-0.04C1312-373.49,1300.92-379.95,1298.62-389.78z"/>
		<path d="M1298.62-341.22c-2.3-9.83,5.04-19.36,16.47-21.69l-0.01-0.04l181.24-30.16l0.02,0.1c0.72-0.19,1.47-0.35,2.22-0.47
			c11.97-1.99,23.58,4.58,25.95,14.67c2.36,10.1-5.43,19.89-17.39,21.89c-0.76,0.13-1.52,0.22-2.27,0.28l0.02,0.1l-181.24,30.16
			l-0.01-0.04C1312-324.93,1300.92-331.39,1298.62-341.22z"/>
		<path d="M1420.1-436.9l-92.45,14.39l-0.01-0.54c-11.63,1.5-22.7-4.21-25-14.04c-0.04-0.19-0.06,0.19-0.1,0.19H1420.1z"/>
		<path d="M1208.87-261.55c25.94-16.64,50.8-19.02,86.47-27.34c1.68-0.39,3.23-0.78,4.68-1.17c-0.6-1.18-1.08-2.43-1.38-3.74
			c-2.3-9.83,5.04-19.36,16.47-21.69l-0.01-0.04l181.24-30.16l0.02,0.1c0.72-0.19,1.47-0.35,2.22-0.47
			c11.97-1.99,23.58,4.58,25.95,14.67c2.1,8.97-3.83,17.69-13.57,20.93c-3.67,6.25-4.2,15.34,17.72,20.45
			c35.67,8.32,60.53,10.7,86.46,27.34c0,0,21.62,11.89,17.29,35.66c0,0-2.16-10.7-22.7-21.39c-16.65-8.67-62.67-12.7-87.46-17.06
			c-22.66-0.96-108.05-5.59-110.7-20.6c-0.93,16.77-104.5,21.64-110.99,21.93c-25.03,4.29-69.91,8.32-86.31,16.86
			c-20.54,10.7-22.7,21.4-22.7,21.4C1187.25-249.66,1208.87-261.55,1208.87-261.55z"/>
	</g>
</g>
<g>
	<g>
		<path class="st0" d="M29.97,0.74c-6.63,0-12,5.37-12,12c0,0.48,0.03,0.96,0.09,1.43l11.86,24.6l12.01-24.91
			c0.03-0.37,0.05-0.74,0.05-1.12C41.98,6.11,36.6,0.74,29.97,0.74z"/>
		<path class="st0" d="M16.92,15.73c-1.5-0.67-3.16-1.1-4.91-1.1c-6.63,0-12,5.35-12,11.98s5.37,12.1,12,12.1
			c0.24,0,0.47,0.07,0.7,0.07h15.27L16.92,15.73z"/>
		<path class="st0" d="M48,14.55c-1.81,0-3.52,0.51-5.06,1.22L31.91,38.75c0,0,12.9,0,17.2,0l0,0C55.23,38.19,60,32.87,60,26.61
			C60,19.98,54.63,14.55,48,14.55z"/>
	</g>
	<path class="st0" d="M44.57,45.55H15.43c-1.42,0-2.57-1.15-2.57-2.57v0c0-1.42,1.15-2.57,2.57-2.57h29.14
		c1.42,0,2.57,1.15,2.57,2.57v0C47.14,44.4,45.99,45.55,44.57,45.55z"/>
	<path class="st0" d="M44.57,52.4H15.43c-1.42,0-2.57-1.15-2.57-2.57v0c0-1.42,1.15-2.57,2.57-2.57h29.14
		c1.42,0,2.57,1.15,2.57,2.57v0C47.14,51.25,45.99,52.4,44.57,52.4z"/>
	<path class="st0" d="M44.57,59.26H15.43c-1.42,0-2.57-1.15-2.57-2.57v0c0-1.42,1.15-2.57,2.57-2.57h29.14
		c1.42,0,2.57,1.15,2.57,2.57v0C47.14,58.11,45.99,59.26,44.57,59.26z"/>
</g>
<g>
	<g>
		<path class="st1" d="M29.76,362.15c-55.25,0-100.04,44.79-100.04,100.04c0,4.03,0.26,7.99,0.73,11.89l98.84,205l100.07-207.57
			c0.29-3.07,0.43-6.18,0.43-9.33C129.8,406.94,85.01,362.15,29.76,362.15z"/>
		<path class="st1" d="M-79.03,487.07c-12.49-5.61-26.34-9.18-40.93-9.18c-55.25,0-100.04,44.57-100.04,99.82
			c0,55.25,44.79,100.8,100.04,100.8c1.97,0,3.92,0.58,5.87,0.58H13.12L-79.03,487.07z"/>
		<path class="st1" d="M179.96,477.26c-15.07,0-29.34,4.23-42.15,10.19L45.94,678.9H174.1c1.94,0,3.89,0.19,5.87,0.19
			c1.97,0,3.92-0.19,5.86-0.19h3.46l-0.12-1.13C240.1,673.12,280,629.88,280,577.74C280,522.49,235.21,477.26,179.96,477.26z"/>
	</g>
	<path class="st1" d="M151.43,735.56H-91.43c-11.83,0-21.43-9.59-21.43-21.43l0,0c0-11.83,9.59-21.43,21.43-21.43h242.86
		c11.83,0,21.43,9.59,21.43,21.43l0,0C172.86,725.97,163.26,735.56,151.43,735.56z"/>
	<path class="st1" d="M151.43,792.7H-91.43c-11.83,0-21.43-9.59-21.43-21.43v0c0-11.83,9.59-21.43,21.43-21.43h242.86
		c11.83,0,21.43,9.59,21.43,21.43v0C172.86,783.11,163.26,792.7,151.43,792.7z"/>
	<path class="st1" d="M151.43,849.85H-91.43c-11.83,0-21.43-9.59-21.43-21.43v0c0-11.83,9.59-21.43,21.43-21.43h242.86
		c11.83,0,21.43,9.59,21.43,21.43v0C172.86,840.25,163.26,849.85,151.43,849.85z"/>
</g>
<g>
	<g>
		<path d="M897.82,15.89c-42.41,0-76.8,34.38-76.8,76.8c0,3.09,0.2,6.13,0.56,9.13l75.88,157.38l76.83-159.35
			c0.22-2.36,0.33-4.75,0.33-7.16C974.62,50.27,940.23,15.89,897.82,15.89z"/>
		<path d="M814.3,111.78c-9.59-4.31-20.22-7.05-31.42-7.05c-42.41,0-76.8,34.22-76.8,76.63s34.38,77.38,76.8,77.38
			c1.51,0,3.01,0.44,4.5,0.44h97.66L814.3,111.78z"/>
		<path d="M1013.13,104.26c-11.57,0-22.52,3.25-32.36,7.83l-70.53,146.97h98.39c1.49,0,2.99,0.14,4.5,0.14
			c1.51,0,3.01-0.14,4.5-0.14h2.66l-0.09-0.87c39.1-3.57,69.72-36.77,69.72-76.8C1089.92,138.97,1055.54,104.26,1013.13,104.26z"/>
	</g>
	<rect x="823" y="269" width="150" height="100"/>
	<rect x="748" y="369" width="300" height="50"/>
</g>
<g>
	<rect x="1386" y="269" width="150" height="100"/>
	<rect x="1311" y="369" width="300" height="50"/>
	<rect x="1386" y="59" width="150" height="200"/>
	<rect x="1545" y="159" width="66" height="100"/>
	<rect x="1311" y="159" width="66" height="100"/>
</g>
</svg>
